<svg xmlns="http://www.w3.org/2000/svg" version="1.1" xmlns:xlink="http://www.w3.org/1999/xlink" width="66" height="66"><svg width="66" height="66" viewBox="0 0 66 66" fill="none" xmlns="http://www.w3.org/2000/svg">
<g clip-path="url(#clip0_640_712)">
<rect width="66" height="66" rx="15" fill="#FFB91D"></rect>
<path d="M32.9903 54.8675C29.495 54.8675 26.3748 52.8708 24.8147 49.6605C24.3407 48.6818 24.7555 47.5269 25.7429 47.0571C26.7302 46.5873 27.8954 46.9983 28.3693 47.9771C29.258 49.8171 31.0353 50.9525 32.9903 50.9525C34.9454 50.9525 36.7227 49.8171 37.6114 47.9771C38.0853 46.9983 39.2505 46.5873 40.2379 47.0571C41.2252 47.5269 41.64 48.7014 41.166 49.6605C39.6059 52.8708 36.4857 54.8675 32.9903 54.8675Z" fill="#633A1E"></path>
<path d="M3.66448 52.7338C7.76533 52.7338 11.0897 49.4385 11.0897 45.3736C11.0897 41.3087 7.76533 38.0134 3.66448 38.0134C-0.436357 38.0134 -3.76074 41.3087 -3.76074 45.3736C-3.76074 49.4385 -0.436357 52.7338 3.66448 52.7338Z" fill="#F5840A"></path>
<path d="M61.6049 52.7338C65.7058 52.7338 69.0301 49.4385 69.0301 45.3736C69.0301 41.3087 65.7058 38.0134 61.6049 38.0134C57.5041 38.0134 54.1797 41.3087 54.1797 45.3736C54.1797 49.4385 57.5041 52.7338 61.6049 52.7338Z" fill="#F5840A"></path>
<path d="M2.16357 32.4933C2.16357 40.2058 8.1867 46.4502 15.6119 46.4502C23.0372 46.4502 29.0603 40.2058 29.0603 32.4933V25.1918C29.0603 17.4793 23.0372 11.2349 15.6119 11.2349C8.1867 11.2349 2.16357 17.4793 2.16357 25.1918V32.4933Z" fill="white"></path>
<path d="M15.6119 40.8909C11.2871 40.8909 7.77197 37.1326 7.77197 32.4933V25.1918C7.77197 20.5526 11.2871 16.7942 15.6119 16.7942C19.9367 16.7942 23.4519 20.5526 23.4519 25.1918V32.4933C23.4519 37.1326 19.9367 40.8909 15.6119 40.8909Z" fill="#633A1E"></path>
<path d="M63.8367 32.4933C63.8367 40.2058 57.8135 46.4502 50.3883 46.4502C42.9631 46.4502 36.9399 40.2058 36.9399 32.4933V25.1918C36.9399 17.4793 42.9631 11.2349 50.3883 11.2349C57.8135 11.2349 63.8367 17.4793 63.8367 25.1918V32.4933Z" fill="white"></path>
<path d="M50.3883 40.8909C46.0635 40.8909 42.5483 37.1326 42.5483 32.4933V25.1918C42.5483 20.5526 46.0635 16.7942 50.3883 16.7942C54.7131 16.7942 58.2282 20.5526 58.2282 25.1918V32.4933C58.2282 37.1326 54.7131 40.8909 50.3883 40.8909Z" fill="#633A1E"></path>
</g>
<defs>
<clipPath id="SvgjsClipPath1026">
<rect width="66" height="66" rx="15" fill="white"></rect>
</clipPath>
</defs>
</svg><style>@media (prefers-color-scheme: light) { :root { filter: none; } }
@media (prefers-color-scheme: dark) { :root { filter: none; } }
</style></svg>