<svg width="310" height="210" viewBox="0 0 310 210" fill="none" xmlns="http://www.w3.org/2000/svg">
<g clip-path="url(#clip0_553_4099)">
<path d="M10.4373 182.421V184.49C10.4373 184.772 10.6435 185 10.8961 185H12.5598C12.8123 185 13.0186 184.772 13.0186 184.49V182.522C13.0186 182.253 12.8278 182.03 12.5849 182.015L10.9211 181.913C10.659 181.898 10.4373 182.13 10.4373 182.421Z" fill="#361917"/>
<path d="M3.09033 178.175V180.244C3.09033 180.525 3.29661 180.754 3.54915 180.754H5.21287C5.46541 180.754 5.67169 180.525 5.67169 180.244V178.276C5.67169 178.007 5.48084 177.784 5.23793 177.769L3.57422 177.667C3.31203 177.651 3.09033 177.884 3.09033 178.175Z" fill="#361917"/>
<path d="M25.7634 181.505V183.575C25.7634 183.856 25.9697 184.084 26.2223 184.084H27.886C28.1385 184.084 28.3448 183.856 28.3448 183.575V181.607C28.3448 181.337 28.1539 181.115 27.911 181.099L26.2473 180.998C25.9851 180.982 25.7634 181.214 25.7634 181.505Z" fill="#361917"/>
<path d="M9.55235 182.642L2.54663 178.315V162.985L9.55235 165.957V182.642Z" fill="#5172C6"/>
<path d="M31.0573 165.074L20.0956 160.549L7.45874 166.205L9.55236 166.105V182.642L29.1025 181.652V165.168L31.0573 165.074Z" fill="#6B90EC"/>
<path d="M0.146526 162.259L12.6466 156.027C12.714 155.994 12.7931 155.99 12.8625 156.019L31.9171 164.024C31.9672 164.046 32 164.094 32 164.149V165.322C32 165.393 31.9306 165.44 31.867 165.412L20.1998 160.59C20.1342 160.563 20.061 160.565 19.9954 160.594L7.4607 166.205L0.150382 162.736C-0.0481846 162.642 -0.0501124 162.357 0.146526 162.259Z" fill="#253F73"/>
<path d="M13.4543 178.325V178.432C13.4543 179.328 14.1773 180.045 15.0448 180.004L24.8883 179.535C25.6999 179.496 26.338 178.807 26.3399 177.968C26.3399 177.077 25.6266 176.363 24.7649 176.396L14.9214 176.757C14.104 176.786 13.4563 177.48 13.4543 178.325Z" fill="#111E33"/>
<path d="M14.3661 178.516H11.9216V176.578H14.2717L14.3661 178.516Z" fill="#253F73"/>
<path d="M11.9216 176.578L26.1008 175.924L27.8937 177.854L14.3661 178.516L11.9216 176.578Z" fill="#3F5794"/>
<path d="M9.55235 170.912L2.54663 167.708V165.58L9.55235 168.958L29.1005 168.143V170.098L9.55235 170.912Z" fill="#3F5794"/>
</g>
<g clip-path="url(#clip1_553_4099)">
<path d="M84.4373 207.421V209.49C84.4373 209.772 84.6435 210 84.8961 210H86.5598C86.8123 210 87.0186 209.772 87.0186 209.49V207.522C87.0186 207.253 86.8278 207.03 86.5849 207.015L84.9211 206.913C84.659 206.898 84.4373 207.13 84.4373 207.421Z" fill="#361917"/>
<path d="M77.0903 203.175V205.244C77.0903 205.525 77.2966 205.754 77.5492 205.754H79.2129C79.4654 205.754 79.6717 205.525 79.6717 205.244V203.276C79.6717 203.007 79.4808 202.784 79.2379 202.769L77.5742 202.667C77.312 202.651 77.0903 202.884 77.0903 203.175Z" fill="#361917"/>
<path d="M99.7634 206.505V208.575C99.7634 208.856 99.9697 209.084 100.222 209.084H101.886C102.139 209.084 102.345 208.856 102.345 208.575V206.607C102.345 206.337 102.154 206.115 101.911 206.099L100.247 205.998C99.9851 205.982 99.7634 206.214 99.7634 206.505Z" fill="#361917"/>
<path d="M83.5524 207.642L76.5466 203.315V187.985L83.5524 190.957V207.642Z" fill="#5172C6"/>
<path d="M105.057 190.074L94.0956 185.549L81.4587 191.205L83.5524 191.105V207.642L103.102 206.652V190.168L105.057 190.074Z" fill="#6B90EC"/>
<path d="M74.1465 187.259L86.6466 181.027C86.714 180.994 86.7931 180.99 86.8625 181.019L105.917 189.024C105.967 189.046 106 189.094 106 189.149V190.322C106 190.393 105.931 190.44 105.867 190.412L94.1998 185.59C94.1342 185.563 94.061 185.565 93.9954 185.594L81.4607 191.205L74.1504 187.736C73.9518 187.642 73.9499 187.357 74.1465 187.259Z" fill="#253F73"/>
<path d="M87.4543 203.325V203.432C87.4543 204.328 88.1773 205.045 89.0448 205.004L98.8883 204.535C99.6999 204.496 100.338 203.807 100.34 202.968C100.34 202.077 99.6266 201.363 98.7649 201.396L88.9214 201.757C88.104 201.786 87.4563 202.48 87.4543 203.325Z" fill="#111E33"/>
<path d="M88.3661 203.516H85.9216V201.578H88.2717L88.3661 203.516Z" fill="#253F73"/>
<path d="M85.9216 201.578L100.101 200.924L101.894 202.854L88.3661 203.516L85.9216 201.578Z" fill="#3F5794"/>
<path d="M83.5524 195.912L76.5466 192.708V190.58L83.5524 193.958L103.101 193.143V195.098L83.5524 195.912Z" fill="#3F5794"/>
</g>
<g clip-path="url(#clip2_553_4099)">
<path d="M343.473 41.6587L343.077 44.3796L342.95 45.2576L340.509 62.1462L337.07 85.9579L333.563 110.212L332.095 120.352L329.695 136.959L329.655 137.234L325.29 167.412L324.553 172.526L321.241 172.874L318.807 173.129L310.393 174.014L307.953 174.275L299.539 175.16L297.105 175.414L288.691 176.299L286.251 176.554L278.293 177.391L273.258 177.921L269.597 178.303L266.983 178.577L264.549 178.832L256.135 179.717L253.695 179.978L245.281 180.863L242.84 181.117L234.433 182.002L231.993 182.257L223.579 183.141L221.138 183.403L212.725 184.287L210.291 184.542L201.877 185.427L199.437 185.688L191.023 186.573L188.582 186.827L180.175 187.712L177.735 187.967L175.582 188.195L173.008 176.064L172.391 173.156L169.321 158.72L167.805 151.576L166.88 147.24L162.375 126.042L159.278 111.472L158.466 107.645L156.033 96.1916L148.209 59.3851L147.619 56.5971L145.178 45.1101L136.764 5.51562L136.127 2.5199L145.178 6.24613L147.619 7.2514L156.033 10.7163L158.466 11.7148L166.88 15.1797L169.321 16.185L177.735 19.6498L180.175 20.6551L188.582 24.1133L191.023 25.1185L199.437 28.5834L201.877 29.5887L210.291 33.0535L212.725 34.0521L221.138 37.517L223.579 38.5222L231.993 41.9871L234.433 42.9924L242.84 46.4505L245.281 47.4558L253.695 50.9207L256.135 51.9259L264.549 55.3908L266.983 56.3894L275.765 60.0084L286.251 57.1668L288.691 56.5033L297.105 54.2247L299.539 53.5679L307.953 51.2825L310.393 50.6258L318.807 48.3404L321.241 47.6837L329.655 45.405L332.095 44.7415L340.509 42.4629L342.95 41.7994L343.473 41.6587Z" fill="#E89C56"/>
<path d="M173.008 176.064L169.314 174.784L166.88 173.933L158.466 171.011L156.026 170.167L147.612 167.245L145.178 166.407L136.764 163.478L134.324 162.627L125.91 159.705L123.476 158.867L115.062 155.939L112.622 155.094L104.208 152.179L101.774 151.328L96.8266 149.605L93.3605 137.683L90.9201 129.292L88.2048 119.963L90.9201 120.178L93.3605 120.379L101.774 121.069L104.208 121.27L112.622 121.96L115.062 122.161L123.476 122.858L125.91 123.053L134.324 123.743L136.764 123.937L145.178 124.628L147.612 124.829L156.026 125.526L158.466 125.72L162.375 126.042L166.88 147.24L169.314 158.686L173.008 176.064Z" fill="#996031"/>
<path d="M90.149 117.584L85.8515 102.793C85.8381 102.759 85.8314 102.726 85.8179 102.686L82.3049 90.6023L75.1581 66.0333L71.4438 53.2663L134.471 6.88281L159.197 123.254L90.1422 117.591L90.149 117.584Z" fill="#3D230E"/>
<path d="M337.07 85.9579L333.563 110.212C306.149 113.04 275.108 110.386 234.547 103.671C190.573 96.386 168.033 105.983 159.277 111.472L158.466 107.645L156.032 96.1916L148.208 59.3851C157.286 58.8154 168.885 59.4722 183.809 61.724C228.486 68.4661 237.953 79.4437 288.316 87.6602C306.236 90.5889 322.964 89.0944 337.07 85.9579Z" fill="#EFAA70"/>
<path d="M345.906 41.0019C345.537 39.6548 344.15 38.8573 342.809 39.2259L275.926 57.3544L137.086 0.18762C136.268 -0.147473 135.336 -0.0335412 134.626 0.489203L67.0257 50.2437C65.8994 51.0748 65.6648 52.6497 66.4894 53.7756C67.133 54.6535 68.2392 54.9886 69.2248 54.7005L72.7244 66.7437L76.3448 79.2091L79.8646 91.3127L83.4044 103.503L88.1913 119.963L162.361 126.048L136.764 5.51559L273.238 61.6972V177.606C273.238 177.713 273.245 177.82 273.258 177.921L278.293 177.391V61.9452L343.084 44.3863L344.143 44.0981C345.49 43.7362 346.288 42.3489 345.92 41.0019H345.906ZM156.026 120.459L92.0866 115.211L89.3043 105.655L151.735 100.293L156.019 120.459H156.026ZM150.622 95.0657L87.7958 100.461L85.5632 92.767L147.236 79.1086L150.629 95.0657H150.622ZM146.13 73.9147L84.0749 87.6602L81.849 79.9999L142.678 57.6761L146.13 73.9147ZM141.571 52.4419L80.3674 74.9065L78.0477 66.9246L137.917 35.2383L141.571 52.4419ZM136.764 29.8433L76.5325 61.724L74.3603 54.2514L132.809 11.239L136.764 29.8433Z" fill="#5E350F"/>
</g>
<defs>
<clipPath id="clip0_553_4099">
<rect width="32" height="29" fill="white" transform="translate(0 156)"/>
</clipPath>
<clipPath id="clip1_553_4099">
<rect width="32" height="29" fill="white" transform="translate(74 181)"/>
</clipPath>
<clipPath id="clip2_553_4099">
<rect width="280" height="207" fill="white" transform="translate(66)"/>
</clipPath>
</defs>
</svg>
