<svg width="166" height="152" viewBox="0 0 166 162" fill="none" xmlns="http://www.w3.org/2000/svg">
<g>
    <g>
        <path d="M143.118 103.204L130.242 107.815C127.115 108.921 123.945 109.431 120.861 109.431C118.553 109.431 116.31 109.154 114.153 108.623C106.928 106.817 100.911 101.992 98.3447 95.0638C98.2585 94.8512 98.1938 94.6387 98.1075 94.4049C95.8861 87.6678 97.3958 80.4631 101.601 74.6611C102.895 72.8971 104.448 71.2394 106.217 69.7942C108.589 67.8602 111.35 66.245 114.455 65.0973L127.331 60.4855C132.054 58.7852 136.906 58.4027 141.371 59.1465C146.439 59.9754 151.054 62.2069 154.505 65.6074C156.64 67.6902 158.322 70.2405 159.4 73.1521C160.479 76.0638 160.845 79.0604 160.565 82.0358C160.155 86.8177 158.085 91.472 154.72 95.3188C151.766 98.7192 147.797 101.503 143.074 103.182L143.118 103.204Z" fill="#62CDDA"/>
        <animateTransform
                attributeName="transform"
                attributeType="XML"
                type="rotate"
                values="0 100 100;20 100 100;0 100 100"
                dur="0.2s"
                repeatCount="indefinite" />
    </g>
    <g>
        <path d="M156.554 73.5135L145.318 84.5862C142.579 87.2428 139.516 89.3255 136.281 90.8132C133.866 91.9396 131.364 92.726 128.841 93.1935C120.343 94.7662 111.63 92.6197 105.484 86.5839C105.29 86.3927 105.095 86.2014 104.923 86.0101C99.2293 80.0168 97.2236 71.707 98.7764 63.5884C99.2509 61.1018 100.07 58.6365 101.192 56.2562C102.702 53.0683 104.815 50.0504 107.511 47.3513L118.747 36.2786C122.867 32.2193 127.762 29.4777 132.83 28.075C138.567 26.481 144.541 26.6085 149.847 28.5213C153.125 29.6902 156.166 31.5392 158.732 34.0895C161.299 36.6186 163.197 39.6152 164.383 42.8457C166.324 48.0739 166.475 53.9609 164.836 59.6141C163.412 64.6085 160.63 69.4542 156.511 73.4922L156.554 73.5135Z" fill="#78E0F3"/>
        <animateTransform
                attributeName="transform"
                attributeType="XML"
                type="rotate"
                values="0 100 100;4 100 100;0 100 100"
                dur="0.2s"
                repeatCount="indefinite" />
    </g>
    <g>
        <path d="M22.8608 103.204L35.7362 107.815C38.8634 108.921 42.0337 109.431 45.1178 109.431C47.4254 109.431 49.6684 109.154 51.8251 108.623C59.05 106.817 65.0671 101.992 67.6336 95.0638C67.7198 94.8512 67.7845 94.6387 67.8708 94.4049C70.0922 87.6678 68.5825 80.4631 64.377 74.6611C63.083 72.8971 61.5302 71.2394 59.7617 69.7942C57.3893 67.8602 54.6288 66.245 51.5231 65.0973L38.6477 60.4855C33.9246 58.7852 29.0721 58.4027 24.6077 59.1465C19.5395 59.9754 14.9242 62.2069 11.4735 65.6074C9.33839 67.6902 7.65618 70.2405 6.57784 73.1521C5.49949 76.0638 5.13286 79.0604 5.41323 82.0358C5.823 86.8177 7.89341 91.472 11.2578 95.3188C14.2125 98.7192 18.1808 101.503 22.9039 103.182L22.8608 103.204Z" fill="#62CDDA"/>
        <animateTransform
                attributeName="transform"
                attributeType="XML"
                type="rotate"
                values="0 67 109;-20 67 109;0 67 109"
                dur="0.2s"
                repeatCount="indefinite" />
    </g>
    <g>
        <path d="M9.44636 73.5135L20.6827 84.5862C23.4217 87.2428 26.4842 89.3255 29.7192 90.8132C32.1347 91.9396 34.6364 92.726 37.1598 93.1935C45.6571 94.7662 54.3701 92.6197 60.5167 86.5839C60.7108 86.3927 60.9049 86.2014 61.0774 86.0101C66.771 80.0168 68.7767 71.707 67.2239 63.5884C66.7495 61.1018 65.9299 58.6365 64.8084 56.2562C63.2988 53.0683 61.1852 50.0504 58.4894 47.3513L47.253 36.2786C43.1338 32.2193 38.2381 29.4777 33.1699 28.075C27.4331 26.481 21.4591 26.6085 16.1537 28.5213C12.8755 29.6902 9.83457 31.5392 7.26811 34.0895C4.70166 36.6186 2.80378 39.6152 1.6176 42.8457C-0.323416 48.0739 -0.474384 53.9609 1.1647 59.6141C2.58811 64.6085 5.37023 69.4542 9.4895 73.4922L9.44636 73.5135Z" fill="#78E0F3"/>
        <animateTransform
                attributeName="transform"
                attributeType="XML"
                type="rotate"
                values="0 61 94;-4 61 94;0 61 94"
                dur="0.2s"
                repeatCount="indefinite" />
    </g>
    <path d="M93.9018 32.0492C91.6804 32.0492 89.7826 30.3702 89.61 28.1387C89.5669 27.5649 88.5964 14.1969 96.231 6.05705C100.005 2.04027 105.052 0 111.263 0C113.635 0 115.577 1.91275 115.577 4.25056C115.577 6.58837 113.635 8.50112 111.263 8.50112C107.511 8.50112 104.685 9.58501 102.572 11.7953C97.4819 17.1723 98.1936 27.3736 98.1936 27.4799C98.3662 29.8177 96.5977 31.8579 94.2253 32.028C94.1175 32.028 94.0097 32.028 93.9018 32.028V32.0492Z" fill="#633A1E"/>
    <path d="M72.0766 32.0492C71.9688 32.0492 71.8609 32.0492 71.7315 32.0492C69.3592 31.8579 67.5907 29.8177 67.7632 27.4799C67.7632 27.3736 68.4534 17.1935 63.3852 11.7953C61.2932 9.56376 58.4464 8.50112 54.6937 8.50112C52.3214 8.50112 50.3804 6.58837 50.3804 4.25056C50.3804 1.91275 52.3214 0 54.6937 0C60.905 0 65.9516 2.04027 69.7258 6.05705C77.3605 14.1969 76.39 27.5649 76.3469 28.1387C76.1743 30.3702 74.2764 32.0492 72.055 32.0492H72.0766Z" fill="#633A1E"/>
    <path d="M131.558 69.5817V95.0425C131.515 101.206 130.264 107.072 128.064 112.449C126.425 116.465 124.247 120.227 121.616 123.628C112.752 135.083 98.7331 142.479 82.9893 142.479C82.4933 142.479 82.0188 142.479 81.5228 142.458C66.3829 142.011 52.9683 134.722 44.3847 123.628C41.7535 120.227 39.5753 116.465 37.9362 112.449C35.7364 107.072 34.4855 101.206 34.4424 95.0425V69.5817C34.4424 60.2517 37.1598 51.5381 41.8614 44.1846C47.1668 35.8535 54.9956 29.2439 64.3125 25.4184C70.0492 23.0381 76.3683 21.7416 82.9893 21.7416C89.6104 21.7416 95.9079 23.0381 101.666 25.4184C110.983 29.2226 118.833 35.8322 124.139 44.1846C128.84 51.5381 131.558 60.2517 131.558 69.5817Z" fill="#FFB91D"/>
    <path d="M82.9893 97.9966C65.7574 97.9966 49.3235 96.934 34.4424 95.0425C34.4855 101.206 35.7364 107.072 37.9362 112.449C53.9388 114.255 69.6395 114.999 82.9893 114.999C96.3392 114.999 112.061 114.255 128.064 112.449C130.264 107.072 131.515 101.206 131.558 95.0425C116.655 96.934 100.243 97.9966 82.9893 97.9966Z" fill="#633A1E"/>
    <path d="M82.9894 125.477C69.5101 125.477 56.5269 124.818 44.3848 123.628C52.9684 134.721 66.3829 142.011 81.5229 142.457C82.0189 142.479 82.4934 142.479 82.9894 142.479C98.7332 142.479 112.752 135.083 121.616 123.628C109.473 124.818 96.4903 125.477 82.9894 125.477Z" fill="#633A1E"/>
    <path d="M89.6535 139.843L86.7851 149.216C85.6421 152.935 80.3151 152.935 79.1936 149.216L76.3252 139.843" fill="#633A1E"/>
    <path d="M82.9895 85.6275C79.1721 85.6275 75.7646 83.4597 74.0608 79.9743C73.5432 78.9116 73.9961 77.6577 75.0744 77.1476C76.1528 76.6376 77.4252 77.0839 77.9428 78.1465C78.9133 80.1443 80.8543 81.3769 82.9895 81.3769C85.1246 81.3769 87.0656 80.1443 88.0361 78.1465C88.5537 77.0839 89.8261 76.6376 90.9045 77.1476C91.9828 77.6577 92.4357 78.9329 91.9181 79.9743C90.2143 83.4597 86.8068 85.6275 82.9895 85.6275Z" fill="#633A1E"/>
    <path d="M40.4163 109.261C40.2438 109.261 40.0713 109.261 39.8987 109.239L21.9551 107.114C19.5828 106.838 17.9005 104.713 18.1809 102.396C18.4613 100.058 20.618 98.3792 22.9687 98.6768L40.9124 100.802C43.2847 101.078 44.9669 103.204 44.6866 105.52C44.4278 107.688 42.5514 109.261 40.4163 109.261Z" fill="#633A1E"/>
    <path d="M47.706 145.199C46.7786 145.199 45.8297 144.902 45.0317 144.285C43.1554 142.84 42.8535 140.162 44.32 138.313L52.386 128.239C53.8526 126.39 56.57 126.093 58.4463 127.538C60.3226 128.983 60.6245 131.661 59.158 133.51L51.092 143.584C50.2509 144.647 48.9784 145.199 47.706 145.199Z" fill="#633A1E"/>
    <path d="M125.584 109.261C123.427 109.261 121.573 107.667 121.314 105.52C121.033 103.182 122.716 101.078 125.088 100.802L143.032 98.6767C145.404 98.4005 147.539 100.058 147.819 102.396C148.1 104.734 146.418 106.838 144.045 107.114L126.102 109.239C125.929 109.239 125.756 109.261 125.584 109.261Z" fill="#633A1E"/>
    <path d="M118.272 145.199C117 145.199 115.728 144.647 114.886 143.584L106.82 133.51C105.354 131.661 105.656 129.004 107.532 127.538C109.409 126.093 112.104 126.39 113.592 128.239L121.658 138.313C123.125 140.162 122.823 142.819 120.947 144.285C120.149 144.902 119.221 145.199 118.272 145.199Z" fill="#633A1E"/>
    <path d="M50.9626 83.311C55.4412 83.311 59.0718 79.7332 59.0718 75.3199C59.0718 70.9066 55.4412 67.3289 50.9626 67.3289C46.4841 67.3289 42.8535 70.9066 42.8535 75.3199C42.8535 79.7332 46.4841 83.311 50.9626 83.311Z" fill="#F5840A"/>
    <path d="M114.24 83.311C118.718 83.311 122.349 79.7332 122.349 75.3199C122.349 70.9066 118.718 67.3289 114.24 67.3289C109.761 67.3289 106.13 70.9066 106.13 75.3199C106.13 79.7332 109.761 83.311 114.24 83.311Z" fill="#F5840A"/>
    <g class="eye">
        <path d="M49.3232 61.3355C49.3232 69.7091 55.9011 76.4888 64.0103 76.4888C72.1194 76.4888 78.6973 69.7091 78.6973 61.3355V53.4082C78.6973 45.0346 72.1194 38.255 64.0103 38.255C55.9011 38.255 49.3232 45.0346 49.3232 53.4082V61.3355Z" fill="white"/>
        <path d="M64.0103 70.453C59.2871 70.453 55.4482 66.3725 55.4482 61.3356V53.4083C55.4482 48.3714 59.2871 44.2908 64.0103 44.2908C68.7334 44.2908 72.5723 48.3714 72.5723 53.4083V61.3356C72.5723 66.3725 68.7334 70.453 64.0103 70.453Z" fill="#633A1E"/>
    </g>
    <path d="M42.5727 84.3098C42.2276 84.3098 41.8826 84.2673 41.5375 84.1823L20.8765 79.2304C18.5688 78.6778 17.1454 76.3825 17.7061 74.0872C18.2669 71.8132 20.6177 70.4318 22.9253 70.9631L43.5863 75.915C45.894 76.4676 47.3174 78.7629 46.7567 81.0582C46.2822 82.9922 44.5137 84.3098 42.5727 84.3098Z" fill="#633A1E"/>
    <g class="eye">
        <path d="M116.677 61.3355C116.677 69.7091 110.099 76.4888 101.99 76.4888C93.8806 76.4888 87.3027 69.7091 87.3027 61.3355V53.4082C87.3027 45.0346 93.8806 38.255 101.99 38.255C110.099 38.255 116.677 45.0346 116.677 53.4082V61.3355Z" fill="white"/>
        <path d="M101.99 70.453C97.2666 70.453 93.4277 66.3725 93.4277 61.3356V53.4083C93.4277 48.3714 97.2666 44.2908 101.99 44.2908C106.713 44.2908 110.552 48.3714 110.552 53.4083V61.3356C110.552 66.3725 106.713 70.453 101.99 70.453Z" fill="#633A1E"/>
    </g>
    <path d="M123.427 84.3098C121.486 84.3098 119.718 83.0134 119.243 81.0582C118.683 78.7841 120.106 76.4676 122.414 75.915L143.075 70.9631C145.382 70.4318 147.733 71.8132 148.294 74.0872C148.855 76.3613 147.431 78.6778 145.123 79.2304L124.462 84.1823C124.117 84.2673 123.772 84.3098 123.427 84.3098Z" fill="#633A1E"/>
    <animateTransform
                attributeName="transform"
                attributeType="XML"
                type="translate"
                values="0 0;0 10;0 0"
                dur="10s"
                repeatCount="indefinite" />
</g>
<style>
    .eye {
        transform-box: fill-box;
        transform-origin: center;
        animation: blink 10s infinite;
    }
    @keyframes blink {
        0%, 98%, 100% { transform: scaleY(1); }
        99%          { transform: scaleY(0); }
    }
  </style>
</svg>
