<svg height="24" width="24" fill="none" viewBox="0 -1 24 29" xmlns="http://www.w3.org/2000/svg">
    <g>
        <g>
            <path d="M17.0002 3.79759L17.8043 5.93641C17.997 6.4559 18.0859 6.98254 18.0859 7.49486C18.0859 7.8782 18.0378 8.25079 17.9451 8.60905C17.6302 9.80923 16.789 10.8088 15.5811 11.2351C15.544 11.2494 15.507 11.2602 15.4662 11.2745C14.2916 11.6435 13.0355 11.3928 12.0239 10.6941C11.7163 10.4792 11.4273 10.2212 11.1753 9.92746C10.8381 9.53337 10.5565 9.07479 10.3564 8.5589L9.55235 6.42007C9.25592 5.63547 9.18923 4.82938 9.31891 4.08778C9.46343 3.24586 9.85249 2.47918 10.4454 1.90596C10.8085 1.55128 11.2531 1.27184 11.7608 1.09271C12.2684 0.913576 12.7909 0.852671 13.3097 0.899245C14.1434 0.967315 14.9549 1.31125 15.6255 1.87014C16.2184 2.36096 16.7038 3.02016 16.9965 3.80475L17.0002 3.79759Z" fill="#62CDDA"/>
            <animateTransform
                attributeName="transform"
                attributeType="XML"
                type="rotate"
                values="-5 15 11;5 15 11;-5 15 11"
                dur="0.2s"
                repeatCount="indefinite" />
        </g>
        <path d="M18.7791 10.6261C19.0755 10.6261 19.3534 10.4541 19.4683 10.1747C19.4683 10.1747 20.1464 8.56248 21.3395 8.11465C21.8324 7.93194 22.3548 7.97135 22.9329 8.24721C23.2997 8.41918 23.7444 8.27229 23.9222 7.91761C24.1001 7.56293 23.9481 7.13302 23.5813 6.96105C22.6216 6.50964 21.6841 6.45232 20.7985 6.7855C18.9977 7.46262 18.1269 9.56203 18.0899 9.6516C17.9417 10.0206 18.1269 10.4362 18.5086 10.5795C18.5975 10.6117 18.6902 10.6297 18.7791 10.6297V10.6261Z" fill="#633A1E"/>
        <path d="M14.3696 5.72144H9.93046C8.85589 5.7286 7.83319 5.93639 6.89572 6.30182C6.19539 6.5741 5.53954 6.93595 4.94667 7.37303C2.94945 8.84548 1.65996 11.1742 1.65996 13.7895C1.65996 13.8719 1.65996 13.9507 1.66367 14.0331C1.74148 16.5481 3.01244 18.7765 4.94667 20.2024C5.53954 20.6395 6.19539 21.0013 6.89572 21.2736C7.83319 21.639 8.85589 21.8468 9.93046 21.854H14.3696C15.9962 21.854 17.5155 21.4026 18.7975 20.6216C20.2501 19.7402 21.4024 18.4398 22.0694 16.8921C22.4844 15.9391 22.7104 14.8894 22.7104 13.7895C22.7104 12.6896 22.4844 11.6435 22.0694 10.687C21.4061 9.13926 20.2538 7.83518 18.7975 6.95386C17.5155 6.17285 15.9962 5.72144 14.3696 5.72144Z" fill="#FFB91D"/>
        <path d="M15.8145 14.1478C15.8145 15.5594 16.9447 16.7022 18.3379 16.7022C19.7312 16.7022 20.8613 15.5594 20.8613 14.1478V12.8115C20.8613 11.3999 19.7312 10.2571 18.3379 10.2571C16.9447 10.2571 15.8145 11.3999 15.8145 12.8115V14.1478Z" fill="white"/>
        <path d="M9.41561 13.7895C9.41561 16.652 9.60088 19.382 9.93066 21.854C8.85609 21.8468 7.8334 21.639 6.89593 21.2736C6.58097 18.6153 6.45128 16.0071 6.45128 13.7895C6.45128 11.5719 6.58097 8.96013 6.89593 6.30182C7.8334 5.93639 8.85609 5.7286 9.93066 5.72144C9.60088 8.19703 9.41561 10.9234 9.41561 13.7895Z" fill="#633A1E"/>
        <path d="M4.6244 13.7895C4.6244 16.0287 4.73927 18.1854 4.94678 20.2024C3.01255 18.7765 1.74159 16.5481 1.66378 14.0331C1.66007 13.9507 1.66007 13.8719 1.66007 13.7895C1.66007 11.1742 2.94956 8.84551 4.94678 7.37305C4.73927 9.39006 4.6244 11.5468 4.6244 13.7895Z" fill="#633A1E"/>
        <path d="M2.11963 12.6825L0.485539 13.159C-0.162909 13.3489 -0.162909 14.2338 0.485539 14.4201L2.11963 14.8966" fill="#633A1E"/>
        <path d="M14.377 23.7814C14.603 23.7814 14.8254 23.6811 14.9736 23.4948L16.8411 21.073C17.0857 20.7577 17.019 20.3063 16.6892 20.0699C16.3594 19.8334 15.8962 19.8979 15.6517 20.2167L13.7841 22.6386C13.5396 22.9539 13.6063 23.4053 13.9361 23.6417C14.0695 23.7385 14.2251 23.785 14.377 23.785V23.7814Z" fill="#633A1E"/>
        <path d="M9.52672 24C9.74534 24 9.96025 23.9069 10.1048 23.7313L12.102 21.3095C12.3577 21.0013 12.3058 20.5499 11.9834 20.3027C11.6647 20.0555 11.1979 20.1057 10.9422 20.4174L8.94497 22.8392C8.68929 23.1473 8.74117 23.5988 9.06354 23.846C9.20064 23.9498 9.36368 24.0036 9.52672 24.0036V24Z" fill="#633A1E"/>
        <path d="M5.26926 23.2691C5.44341 23.2691 5.61386 23.2118 5.75467 23.0936L8.24471 20.9978C8.55226 20.7362 8.58561 20.2848 8.31882 19.9875C8.04832 19.6901 7.58144 19.6579 7.27389 19.9158L4.78385 22.0116C4.4763 22.2732 4.44295 22.7246 4.70974 23.0219C4.85796 23.1867 5.06175 23.2691 5.26926 23.2691Z" fill="#633A1E"/>
        <g>
            <path d="M12.1945 1.56918L14.125 3.43573C14.5882 3.89073 14.9513 4.39946 15.2107 4.93685C15.4071 5.33811 15.5442 5.75369 15.6257 6.17286C15.8999 7.58441 15.5257 9.03179 14.4733 10.0528C14.44 10.0851 14.4066 10.1173 14.3733 10.146C13.3284 11.0918 11.8795 11.425 10.4641 11.167C10.0305 11.0882 9.60071 10.9521 9.1857 10.7658C8.62989 10.515 8.10372 10.1639 7.63313 9.71607L5.70261 7.84952C4.99487 7.16524 4.51687 6.35199 4.27231 5.51007C3.99441 4.55709 4.01664 3.56471 4.35013 2.68338C4.55393 2.13882 4.8763 1.63367 5.32095 1.20734C5.76189 0.781007 6.28436 0.465736 6.84758 0.268692C7.75911 -0.0537443 8.78551 -0.0788226 9.77116 0.193457C10.6419 0.42991 11.4868 0.892069 12.1908 1.57635L12.1945 1.56918Z" fill="#78E0F3"/>
            <animateTransform
                attributeName="transform"
                attributeType="XML"
                type="rotate"
                values="-5 15 11;5 15 11;-5 15 11"
                dur="0.2s"
                repeatCount="indefinite" />
        </g>
        <path d="M17.7898 8.18986C18.0863 8.18986 18.3642 8.01789 18.479 7.73845C18.479 7.73845 19.1571 6.12626 20.3503 5.67844C20.8431 5.49572 21.3656 5.53513 21.9436 5.81099C22.3104 5.98296 22.7551 5.83607 22.933 5.48139C23.1108 5.12671 22.9589 4.6968 22.5921 4.52483C21.6324 4.07342 20.6949 4.0161 19.8093 4.34928C18.0085 5.0264 17.1377 7.12582 17.1006 7.21538C16.9524 7.58439 17.1377 7.99998 17.5193 8.14328C17.6083 8.17553 17.7009 8.19344 17.7898 8.19344V8.18986Z" fill="#633A1E"/>
        <path d="M18.3346 15.6847C19.1461 15.6847 19.8057 14.9969 19.8057 14.1478V12.8115C19.8057 11.9624 19.1461 11.2745 18.3346 11.2745C17.5231 11.2745 16.8636 11.9624 16.8636 12.8115V14.1478C16.8636 14.9969 17.5231 15.6847 18.3346 15.6847Z" fill="#633A1E"/>
        <animateTransform
            attributeName="transform"
            attributeType="XML"
            type="translate"
            values="0 0;0 3;0 0"
            dur="10s"
            repeatCount="indefinite" />
    </g>
</svg>
