<svg width="331" height="321" viewBox="0 0 331 321" fill="none" xmlns="http://www.w3.org/2000/svg">
<g clip-path="url(#clip0_573_1040)">
<path d="M43.8192 262.608L46.6871 267.741C47.3772 268.989 47.8143 270.296 48.0259 271.603C48.1843 272.58 48.2193 273.55 48.1387 274.5C47.8573 277.687 46.1944 280.572 43.3895 282.142C43.304 282.193 43.217 282.236 43.1223 282.288C40.376 283.699 37.1725 283.562 34.3875 282.185C33.5397 281.759 32.7199 281.217 31.9767 280.569C30.9818 279.699 30.0973 278.642 29.3904 277.406L26.5225 272.273C25.4668 270.391 24.9692 268.362 24.9829 266.419C24.9917 264.215 25.6351 262.104 26.8614 260.405C27.611 259.355 28.5929 258.465 29.7717 257.805C30.9505 257.146 32.2146 256.781 33.5141 256.693C35.5997 256.533 37.7444 257.086 39.6304 258.243C41.2963 259.257 42.7665 260.744 43.813 262.628L43.8192 262.608Z" fill="#62CDDA"/>
<path d="M51.0292 279.31C51.7607 279.192 52.3755 278.642 52.5435 277.884C52.5435 277.884 53.5509 273.501 56.3104 271.882C57.4511 271.219 58.7567 271.111 60.2972 271.583C61.2736 271.875 62.3102 271.323 62.6026 270.347C62.895 269.372 62.3425 268.336 61.3661 268.044C58.8113 267.277 56.4741 267.506 54.4262 268.709C50.2618 271.156 48.9802 276.858 48.9258 277.101C48.7124 278.101 49.3413 279.087 50.3424 279.3C50.5752 279.346 50.8112 279.355 51.0307 279.32L51.0292 279.31Z" fill="#633A1E"/>
<path d="M38.1217 268.566L27.1668 270.341C24.5179 270.789 22.0799 271.727 19.9173 273.034C18.3015 274.008 16.8325 275.193 15.55 276.545C11.2295 281.098 9.00927 287.552 10.0897 294.222C10.1238 294.432 10.1563 294.633 10.1995 294.841C11.4305 301.224 15.4876 306.398 20.85 309.261C22.4937 310.139 24.2617 310.799 26.1025 311.213C28.567 311.771 31.1766 311.892 33.8315 311.48L44.7864 309.706C48.8007 309.055 52.3634 307.297 55.2047 304.792C58.4252 301.964 60.7318 298.187 61.7384 293.974C62.3689 291.378 62.493 288.61 62.0386 285.806C61.5843 283.001 60.5943 280.424 59.175 278.15C56.8987 274.469 53.5161 271.604 49.5583 269.939C46.0717 268.46 42.136 267.916 38.1217 268.566Z" fill="#FFB91D"/>
<path d="M45.1689 289.476C45.752 293.076 49.0132 295.538 52.4514 294.981C55.8897 294.424 58.2066 291.058 57.6235 287.459L57.0714 284.051C56.4883 280.451 53.2271 277.989 49.7888 278.546C46.3506 279.103 44.0337 282.469 44.6168 286.069L45.1689 289.476Z" fill="white"/>
<path d="M29.2285 291.121C30.4111 298.421 31.9961 305.308 33.8312 311.48C31.1764 311.892 28.5667 311.771 26.1022 311.213C24.2267 304.56 22.8292 297.961 21.9131 292.306C20.9969 286.651 20.238 279.939 19.9171 273.034C22.0796 271.727 24.5176 270.789 27.1665 270.341C27.3754 276.786 28.0445 283.812 29.2285 291.121Z" fill="#633A1E"/>
<path d="M17.405 293.037C18.3301 298.747 19.5045 304.2 20.8499 309.261C15.4875 306.398 11.4304 301.224 10.1994 294.841C10.1562 294.633 10.1236 294.432 10.0896 294.222C9.00912 287.552 11.2293 281.098 15.5498 276.545C15.871 281.772 16.4785 287.317 17.405 293.037Z" fill="#633A1E"/>
<path d="M10.7661 291.215L6.93031 293.083C5.4085 293.827 5.77407 296.083 7.45129 296.299L11.6808 296.861" fill="#633A1E"/>
<path d="M45.6006 314.618C46.1584 314.527 46.6656 314.183 46.9544 313.648L50.5626 306.726C51.0359 305.824 50.6848 304.7 49.7733 304.228C48.8618 303.757 47.7454 304.107 47.2736 305.018L43.6653 311.94C43.1921 312.842 43.5431 313.967 44.4547 314.438C44.8238 314.631 45.2271 314.688 45.6021 314.627L45.6006 314.618Z" fill="#633A1E"/>
<path d="M33.7209 317.114C34.2605 317.027 34.7523 316.703 35.0364 316.198L38.9647 309.223C39.4684 308.336 39.1539 307.205 38.2562 306.704C37.3677 306.201 36.2362 306.515 35.734 307.412L31.8057 314.387C31.3021 315.275 31.6166 316.405 32.5143 316.906C32.8955 317.117 33.3201 317.188 33.7224 317.123L33.7209 317.114Z" fill="#633A1E"/>
<path d="M22.9121 316.953C23.3419 316.883 23.7388 316.669 24.0375 316.311L29.3166 309.971C29.9676 309.181 29.8634 308.016 29.0822 307.365C28.2918 306.715 27.1263 306.819 26.4739 307.6L21.1947 313.94C20.5438 314.73 20.648 315.894 21.4292 316.546C21.863 316.907 22.4 317.036 22.9121 316.953Z" fill="#633A1E"/>
<path d="M31.0382 258.847L36.5735 262.835C37.9046 263.81 39.0109 264.962 39.873 266.229C40.5234 267.174 41.0334 268.179 41.4078 269.215C42.6676 272.705 42.3419 276.546 40.1668 279.57C40.0978 279.666 40.0288 279.761 39.9584 279.848C37.7704 282.677 34.3326 284.106 30.7329 284.014C29.6305 283.987 28.5135 283.811 27.4123 283.502C25.9371 283.085 24.4936 282.4 23.1472 281.446L17.6119 277.458C15.5827 275.996 14.0671 274.113 13.1157 272.064C12.0362 269.745 11.6811 267.205 12.14 264.824C12.418 263.354 13.0048 261.937 13.926 260.672C14.8381 259.409 15.9972 258.396 17.3057 257.668C19.422 256.482 21.9446 256.007 24.4895 256.308C26.7361 256.563 29.0119 257.403 31.0321 258.867L31.0382 258.847Z" fill="#78E0F3"/>
<path d="M47.5814 273.494C48.313 273.375 48.9278 272.825 49.0958 272.067C49.0958 272.067 50.1032 267.685 52.8626 266.066C54.0034 265.403 55.309 265.294 56.8495 265.767C57.8258 266.058 58.8624 265.506 59.1548 264.531C59.4472 263.555 58.8947 262.519 57.9184 262.227C55.3635 261.46 53.0263 261.689 50.9785 262.892C46.8141 265.339 45.5325 271.041 45.478 271.284C45.2647 272.284 45.8936 273.27 46.8947 273.483C47.1274 273.53 47.3635 273.538 47.5829 273.503L47.5814 273.494Z" fill="#633A1E"/>
<path d="M52.0217 292.388C54.0243 292.064 55.3679 290.046 55.0171 287.881L54.465 284.473C54.1142 282.308 52.2024 280.817 50.1998 281.142C48.1972 281.466 46.8537 283.484 47.2044 285.649L47.7565 289.057C48.1073 291.222 50.0191 292.713 52.0217 292.388Z" fill="#633A1E"/>
</g>
<path d="M85.2703 285.052C159.415 282.344 316.339 274.519 292.318 255.618C261.2 231.131 56.0002 219.5 56.0001 186.5C56.0001 153.5 210.5 186.5 221.5 102" stroke="#361917" stroke-width="4" stroke-linecap="round" stroke-dasharray="12 12"/>
<g clip-path="url(#clip1_573_1040)">
<path d="M354.877 29.912C354.384 27.8152 352.529 26.4148 350.489 26.3606C351.366 23.3044 348.91 19.521 344.853 20.5113C338.14 22.3218 331.211 23.8306 324.351 25.1072C304.073 28.7514 282.654 30.8327 262.522 26.8249C258.187 26.0047 253.969 25.0066 249.803 23.8461C246.624 22.492 243.537 20.8905 240.934 18.8788C235.037 14.4918 232.781 7.35813 228.616 1.18387C226.645 -1.61699 222.442 0.990439 224.035 4.01567C226.245 7.93842 227.854 12.7509 230.248 16.9522C230.279 17.0141 230.318 17.0683 230.349 17.1224C225.229 15.1185 219.878 13.1533 214.628 11.5672C203.349 8.20922 191.631 6.07376 180.021 4.54954C176.626 4.20137 175.856 8.99841 179.067 9.81082C192.886 13.192 206.544 16.7897 219.385 22.1826C225.806 24.8441 232.312 28.0086 239.256 30.6006C244.122 32.4111 249.08 33.9353 254.069 35.212C237.993 35.4828 221.895 35.3203 205.966 34.7942C185.634 34.3144 160.397 32.6045 140.203 31.2737C138.64 31.1422 137.224 32.2796 137.023 33.8657C136.815 35.4982 137.963 36.9992 139.587 37.2081C157.11 39.5293 174.686 41.4791 192.309 42.9027C229.771 45.7345 267.749 46.7945 305.235 43.3437C320.794 41.8195 336.646 39.7692 351.736 35.4286C354.046 34.7168 355.454 32.3028 354.877 29.9043V29.912Z" fill="#623C2E"/>
<path d="M216.775 35.1345C219.293 32.7824 221.333 29.115 225.028 27.5985C225.213 22.8865 231.596 21.3159 234.367 25.1922C236.153 21.5557 241.365 22.3681 243.213 25.1922C243.452 27.0569 243.983 27.6294 246.039 28.3877C249.788 32.1247 256.032 33.0996 258.164 38.3377C262.814 40.3571 265.247 44.4268 263.307 49.2007C268.026 49.4096 270.128 55.4368 268.796 59.112C271.653 61.5028 273.3 65.4487 272.522 68.9614C275.548 71.77 275.279 76.4665 273.362 79.6774C275.548 82.9038 274.193 87.1206 272.076 89.9833C273.254 94.2388 272.022 97.9294 268.157 100.343C268.719 104.104 265.532 107.918 261.883 109.125C261.398 113.489 257.594 116.916 252.821 116.924C252.683 120.831 248.525 122.356 244.984 122.905C245.469 127.168 240.826 129.598 237.015 127.834C232.82 131.772 225.629 130.178 224.405 124.538C220.686 125.133 217.006 122.665 216.752 119.207C212.21 118.835 208.591 114.796 208.153 110.765C203.733 109.404 200.184 105.473 200.793 100.854C198.221 98.7495 196.982 95.4999 198.868 92.5056C194.102 91.9563 191.839 83.84 196.466 81.8283C193.64 78.3157 194.433 73.5186 197.112 70.238C194.587 66.47 196.45 61.5569 199.715 58.9031C198.737 55.4832 200.846 50.9028 204.126 49.2626C202.91 43.9471 206.998 41.1385 212.402 41.595C212.672 39.475 213.796 36.8599 215.905 35.854L216.768 35.1267L216.775 35.1345Z" fill="#4C322C"/>
<path d="M232.997 45.5178C234.948 45.5178 236.53 43.6957 236.53 41.448C236.53 39.2004 234.948 37.3783 232.997 37.3783C231.045 37.3783 229.463 39.2004 229.463 41.448C229.463 43.6957 231.045 45.5178 232.997 45.5178Z" fill="#3D2721"/>
<path d="M211.91 97.1634C213.861 97.1634 215.444 95.3413 215.444 93.0937C215.444 90.846 213.861 89.0239 211.91 89.0239C209.958 89.0239 208.376 90.846 208.376 93.0937C208.376 95.3413 209.958 97.1634 211.91 97.1634Z" fill="#3D2721"/>
<path d="M227.63 108.143C229.582 108.143 231.164 106.32 231.164 104.073C231.164 101.825 229.582 100.003 227.63 100.003C225.679 100.003 224.097 101.825 224.097 104.073C224.097 106.32 225.679 108.143 227.63 108.143Z" fill="#3D2721"/>
<path d="M250.196 103.585C252.148 103.585 253.73 101.763 253.73 99.5156C253.73 97.2679 252.148 95.4458 250.196 95.4458C248.244 95.4458 246.662 97.2679 246.662 99.5156C246.662 101.763 248.244 103.585 250.196 103.585Z" fill="#3D2721"/>
<path d="M238.278 118.193C240.23 118.193 241.812 116.371 241.812 114.123C241.812 111.876 240.23 110.054 238.278 110.054C236.326 110.054 234.744 111.876 234.744 114.123C234.744 116.371 236.326 118.193 238.278 118.193Z" fill="#3D2721"/>
<path d="M225.607 56.1901C226.291 54.0501 225.339 51.829 223.481 51.2291C221.623 50.6292 219.562 51.8777 218.878 54.0176C218.194 56.1576 219.146 58.3787 221.004 58.9786C222.862 59.5785 224.923 58.33 225.607 56.1901Z" fill="#3D2721"/>
<path d="M238.105 64.4898C238.789 62.3499 237.837 60.1288 235.979 59.5289C234.121 58.929 232.06 60.1774 231.376 62.3174C230.692 64.4573 231.644 66.6784 233.502 67.2783C235.36 67.8782 237.421 66.6298 238.105 64.4898Z" fill="#3D2721"/>
<path d="M216.506 76.4818C217.19 74.3419 216.238 72.1208 214.38 71.5209C212.522 70.921 210.461 72.1694 209.777 74.3094C209.093 76.4493 210.044 78.6704 211.902 79.2703C213.761 79.8702 215.821 78.6218 216.506 76.4818Z" fill="#3D2721"/>
<path d="M236.368 88.0983C237.052 85.9583 236.1 83.7372 234.242 83.1373C232.384 82.5374 230.323 83.7859 229.639 85.9258C228.955 88.0658 229.907 90.2869 231.765 90.8868C233.623 91.4867 235.684 90.2382 236.368 88.0983Z" fill="#3D2721"/>
<path d="M259.662 73.0551C260.346 70.9152 259.394 68.6941 257.536 68.0942C255.678 67.4943 253.617 68.7427 252.933 70.8827C252.249 73.0226 253.201 75.2437 255.059 75.8436C256.917 76.4435 258.978 75.1951 259.662 73.0551Z" fill="#3D2721"/>
<path d="M251.848 57.2618C253.661 55.9461 254.205 53.5904 253.062 52.0002C251.92 50.41 249.524 50.1875 247.71 51.5033C245.897 52.819 245.353 55.1747 246.496 56.7649C247.638 58.3551 250.034 58.5776 251.848 57.2618Z" fill="#3D2721"/>
<path d="M214.766 72.5592C214.689 72.7062 214.535 72.799 214.366 72.7758C214.366 72.7758 213.38 72.6907 212.857 73.1627C212.641 73.3561 212.533 73.6192 212.526 73.9751C212.526 74.1995 212.333 74.3774 212.11 74.3774C211.887 74.3774 211.709 74.184 211.709 73.9596C211.725 73.3716 211.925 72.8996 212.318 72.5515C213.111 71.8474 214.389 71.9634 214.443 71.9712C214.666 71.9944 214.827 72.1955 214.804 72.4199C214.804 72.4741 214.781 72.5205 214.758 72.5669L214.766 72.5592Z" fill="#633A1E"/>
<path d="M213.388 69.1239L214.496 66.9497C214.766 66.4236 215.128 65.9749 215.551 65.6112C215.867 65.3404 216.213 65.1083 216.583 64.9303C217.822 64.3346 219.323 64.3036 220.64 64.9845C220.678 65.0077 220.725 65.0232 220.763 65.0464C222.01 65.735 222.819 66.942 223.057 68.2573C223.127 68.6597 223.15 69.0775 223.111 69.4953C223.065 70.0523 222.911 70.6017 222.649 71.1356L221.541 73.3097C221.133 74.1066 220.524 74.7333 219.808 75.1589C219 75.6386 218.053 75.8707 217.106 75.7933C216.521 75.7469 215.936 75.5844 215.382 75.2981C214.827 75.0119 214.358 74.6328 213.973 74.1763C213.357 73.449 212.987 72.5437 212.91 71.5998C212.833 70.7719 212.987 69.9053 213.395 69.1084L213.388 69.1239Z" fill="#FFB91D"/>
<path d="M217.284 72.0253C217.992 72.389 218.292 73.2401 217.938 73.9287C217.584 74.6173 216.729 74.8649 216.021 74.5012L215.343 74.1531C214.635 73.7894 214.335 72.9383 214.689 72.2497C215.043 71.5611 215.898 71.3135 216.606 71.6772L217.284 72.0253Z" fill="white"/>
<path d="M218.7 68.7912C220.148 69.534 221.479 70.3387 222.642 71.1356C222.904 70.6095 223.058 70.0524 223.104 69.4953C221.841 68.652 220.556 67.9092 219.439 67.3289C218.323 66.7486 216.968 66.1374 215.551 65.6035C215.136 65.9672 214.774 66.4159 214.497 66.942C215.828 67.4217 217.253 68.0407 218.7 68.7835V68.7912Z" fill="#633A1E"/>
<path d="M219.901 66.4391C221.033 67.0194 222.088 67.6384 223.058 68.2651C222.819 66.9498 222.018 65.7428 220.763 65.0541C220.725 65.0309 220.686 65.0077 220.64 64.9922C219.324 64.3114 217.823 64.3423 216.583 64.9381C217.653 65.3636 218.769 65.8665 219.901 66.4468V66.4391Z" fill="#633A1E"/>
<path d="M219.97 64.9226L220.617 64.2418C220.871 63.971 221.318 64.2031 221.256 64.5667L221.087 65.4874" fill="#633A1E"/>
<path d="M211.84 66.9807L212.302 68.4121C212.418 68.7603 212.58 69.0698 212.787 69.3328C212.941 69.534 213.119 69.712 213.311 69.859C213.958 70.3619 214.781 70.5553 215.559 70.3C215.582 70.2923 215.605 70.2845 215.628 70.2768C216.367 70.006 216.899 69.387 217.122 68.621C217.191 68.3889 217.23 68.1413 217.237 67.886C217.245 67.5456 217.207 67.1974 217.099 66.8492L216.637 65.4178C216.467 64.8917 216.175 64.4429 215.813 64.1103C215.397 63.7234 214.897 63.4835 214.366 63.4139C214.042 63.3752 213.704 63.3984 213.38 63.5068C213.057 63.6151 212.764 63.7853 212.526 64.0097C212.133 64.3733 211.864 64.8685 211.756 65.4256C211.656 65.913 211.679 66.4469 211.848 66.973L211.84 66.9807Z" fill="#78E0F3"/>
<path d="M213.781 71.4451C213.704 71.5921 213.55 71.6849 213.38 71.6617C213.38 71.6617 212.395 71.5766 211.871 72.0486C211.656 72.242 211.548 72.505 211.54 72.861C211.54 73.0853 211.348 73.2633 211.124 73.2633C210.901 73.2633 210.724 73.0699 210.724 72.8455C210.74 72.2575 210.94 71.7855 211.332 71.4373C212.125 70.7332 213.403 70.8493 213.457 70.857C213.68 70.8802 213.842 71.0814 213.819 71.3058C213.819 71.3599 213.796 71.4064 213.773 71.4528L213.781 71.4451Z" fill="#633A1E"/>
<path d="M217.43 73.6579C217.229 74.0525 216.714 74.1995 216.282 73.9828L215.605 73.6347C215.174 73.418 214.997 72.9151 215.197 72.5128C215.397 72.1104 215.913 71.9712 216.344 72.1878L217.021 72.536C217.453 72.7526 217.63 73.2555 217.43 73.6579Z" fill="#633A1E"/>
<path d="M249.926 84.3816C250.065 84.2888 250.134 84.1263 250.103 83.9561C250.103 83.9561 249.911 82.9812 250.327 82.4087C250.496 82.1688 250.75 82.0373 251.096 81.9909C251.32 81.9599 251.474 81.7587 251.451 81.5344C251.42 81.31 251.22 81.1552 250.996 81.1784C250.419 81.2558 249.965 81.5034 249.664 81.9367C249.049 82.8033 249.303 84.0644 249.31 84.1186C249.357 84.343 249.572 84.4822 249.788 84.4358C249.842 84.4281 249.888 84.4049 249.926 84.3816Z" fill="#633A1E"/>
<path d="M246.385 83.3758L244.345 84.7143C243.852 85.0393 243.451 85.4494 243.136 85.9058C242.897 86.2463 242.712 86.6177 242.574 87.0045C242.112 88.3121 242.243 89.8054 243.059 91.0588C243.082 91.0975 243.113 91.1362 243.136 91.1749C243.952 92.3509 245.23 93.0318 246.554 93.1246C246.962 93.1556 247.378 93.1246 247.778 93.0473C248.325 92.9389 248.856 92.73 249.349 92.4051L251.389 91.0665C252.136 90.5791 252.69 89.8982 253.037 89.14C253.429 88.2812 253.552 87.314 253.383 86.3778C253.275 85.7975 253.052 85.2327 252.713 84.7066C252.374 84.1805 251.943 83.7549 251.458 83.4222C250.673 82.8806 249.741 82.6098 248.794 82.633C247.963 82.6485 247.124 82.8884 246.377 83.3835L246.385 83.3758Z" fill="#FFB91D"/>
<path d="M249.665 86.9581C250.103 87.6313 250.973 87.8324 251.612 87.4146C252.251 86.9968 252.413 86.107 251.974 85.4339L251.558 84.7995C251.12 84.1263 250.25 83.9252 249.611 84.343C248.972 84.7608 248.81 85.6505 249.249 86.3237L249.665 86.9581Z" fill="white"/>
<path d="M244.345 84.7143C243.852 85.0393 243.452 85.4493 243.136 85.9058C243.814 87.2676 244.568 88.5519 245.261 89.6119C245.954 90.6719 246.816 91.8712 247.786 93.0472C248.333 92.9389 248.864 92.73 249.357 92.405C248.441 91.3296 247.501 90.0762 246.616 88.7144C245.731 87.3527 244.961 85.9909 244.345 84.7143Z" fill="#633A1E"/>
<path d="M242.574 87.0045C242.112 88.3121 242.243 89.8054 243.059 91.0588C243.082 91.0975 243.113 91.1362 243.136 91.1749C243.952 92.3509 245.23 93.0318 246.554 93.1246C245.83 92.2271 245.107 91.229 244.414 90.1613C243.721 89.0936 243.097 88.0258 242.566 87.0045H242.574Z" fill="#633A1E"/>
<path d="M242.928 90.3857L242.328 91.1052C242.089 91.3915 242.366 91.8093 242.72 91.7087L243.613 91.4457" fill="#633A1E"/>
<path d="M244.098 82.045L245.561 82.3545C245.915 82.4319 246.239 82.5634 246.524 82.7414C246.739 82.8729 246.932 83.0276 247.101 83.2056C247.663 83.7936 247.94 84.5983 247.778 85.4029C247.778 85.4262 247.771 85.4494 247.763 85.4803C247.578 86.2463 247.016 86.8421 246.285 87.1438C246.062 87.2367 245.823 87.3063 245.577 87.3372C245.246 87.3837 244.891 87.3759 244.537 87.3063L243.074 86.9968C242.536 86.8807 242.066 86.6409 241.689 86.3082C241.265 85.9368 240.965 85.4571 240.85 84.9387C240.773 84.6138 240.765 84.2811 240.834 83.9406C240.903 83.6002 241.042 83.2984 241.242 83.0354C241.558 82.6098 242.02 82.2849 242.559 82.1146C243.028 81.9599 243.56 81.929 244.098 82.045Z" fill="#78E0F3"/>
<path d="M248.718 83.5151C248.856 83.4222 248.926 83.2597 248.895 83.0895C248.895 83.0895 248.702 82.1146 249.118 81.5421C249.287 81.3022 249.542 81.1707 249.888 81.1243C250.111 81.0933 250.265 80.8922 250.242 80.6678C250.211 80.4434 250.011 80.2887 249.788 80.3119C249.21 80.3892 248.756 80.6368 248.456 81.0701C247.84 81.9367 248.094 83.1978 248.102 83.252C248.148 83.4764 248.364 83.6156 248.579 83.5692C248.633 83.5615 248.679 83.5383 248.718 83.5151Z" fill="#633A1E"/>
<path d="M251.297 86.9271C251.666 86.6795 251.759 86.1534 251.497 85.7511L251.081 85.1166C250.819 84.7143 250.303 84.5828 249.926 84.8303C249.549 85.0779 249.464 85.6041 249.726 86.0064L250.142 86.6408C250.404 87.0432 250.919 87.1747 251.297 86.9271Z" fill="#633A1E"/>
<path d="M227.33 100.684C227.454 100.792 227.631 100.823 227.785 100.746C227.785 100.746 228.67 100.312 229.332 100.56C229.601 100.661 229.802 100.87 229.933 101.202C230.017 101.411 230.256 101.512 230.464 101.427C230.672 101.342 230.772 101.102 230.687 100.893C230.464 100.351 230.11 99.9798 229.617 99.7941C228.624 99.4227 227.477 99.9875 227.423 100.011C227.223 100.111 227.138 100.359 227.238 100.56C227.261 100.606 227.292 100.645 227.33 100.684Z" fill="#633A1E"/>
<path d="M227.384 96.9855L225.575 95.353C225.136 94.9584 224.636 94.6721 224.12 94.4864C223.727 94.3471 223.327 94.2543 222.919 94.2233C221.549 94.115 220.14 94.6257 219.147 95.7398C219.116 95.7785 219.085 95.8095 219.054 95.8481C218.13 96.9468 217.807 98.355 218.061 99.6703C218.138 100.073 218.269 100.467 218.454 100.839C218.7 101.342 219.039 101.806 219.47 102.2L221.279 103.833C221.941 104.429 222.734 104.8 223.55 104.939C224.474 105.102 225.437 104.97 226.299 104.56C226.83 104.305 227.315 103.949 227.739 103.477C228.162 103.005 228.462 102.487 228.655 101.922C228.97 101.024 228.993 100.042 228.732 99.1364C228.501 98.3318 228.054 97.5813 227.392 96.9855H227.384Z" fill="#FFB91D"/>
<path d="M224.79 101.094C224.259 101.69 224.282 102.595 224.851 103.106C225.421 103.616 226.314 103.547 226.845 102.951L227.354 102.386C227.885 101.79 227.862 100.885 227.292 100.374C226.722 99.8637 225.829 99.9333 225.298 100.529L224.79 101.094Z" fill="white"/>
<path d="M225.575 95.3529C225.136 94.9584 224.636 94.6721 224.12 94.4864C222.988 95.5 221.941 96.56 221.102 97.4961C220.263 98.4323 219.331 99.5929 218.446 100.839C218.692 101.342 219.031 101.806 219.462 102.2C220.263 101.032 221.225 99.8018 222.303 98.5871C223.381 97.3724 224.497 96.2814 225.567 95.3529H225.575Z" fill="#633A1E"/>
<path d="M222.919 94.2156C221.549 94.1073 220.14 94.6179 219.147 95.7321C219.116 95.7708 219.085 95.8017 219.054 95.8404C218.13 96.9391 217.807 98.3472 218.061 99.6626C218.739 98.7341 219.509 97.7747 220.355 96.823C221.202 95.8713 222.065 94.997 222.919 94.2233V94.2156Z" fill="#633A1E"/>
<path d="M219.755 95.4303L218.908 95.0279C218.569 94.8732 218.238 95.2446 218.43 95.5618L218.915 96.3665" fill="#633A1E"/>
<path d="M228.069 94.4245L228.154 95.9255C228.169 96.2891 228.123 96.6373 228.031 96.9623C227.962 97.2021 227.861 97.4342 227.731 97.6431C227.307 98.3472 226.607 98.8192 225.791 98.8656C225.767 98.8656 225.737 98.8656 225.714 98.8656C224.928 98.8811 224.212 98.4865 223.735 97.8598C223.589 97.6664 223.465 97.4497 223.365 97.2176C223.234 96.9081 223.15 96.5677 223.127 96.204L223.042 94.703C223.011 94.1537 223.127 93.6276 223.342 93.1865C223.589 92.6836 223.974 92.2658 224.443 92.0182C224.736 91.8635 225.059 91.7706 225.398 91.7474C225.737 91.7242 226.068 91.7861 226.376 91.9099C226.868 92.1111 227.299 92.4747 227.6 92.9544C227.869 93.3722 228.039 93.8829 228.062 94.4322L228.069 94.4245Z" fill="#78E0F3"/>
<path d="M227.846 99.2912C227.969 99.3995 228.146 99.4304 228.3 99.3531C228.3 99.3531 229.186 98.9198 229.848 99.1674C230.117 99.2679 230.317 99.4769 230.448 99.8096C230.533 100.018 230.772 100.119 230.979 100.034C231.187 99.9488 231.287 99.709 231.203 99.5001C230.979 98.9585 230.625 98.5871 230.133 98.4014C229.139 98.03 227.992 98.5948 227.938 98.618C227.738 98.7186 227.653 98.9662 227.754 99.1674C227.777 99.2138 227.807 99.2525 227.846 99.2912Z" fill="#633A1E"/>
<path d="M225.236 102.672C225.567 102.974 226.098 102.92 226.422 102.564L226.93 101.999C227.253 101.643 227.245 101.102 226.914 100.808C226.583 100.514 226.052 100.56 225.729 100.916L225.221 101.481C224.897 101.837 224.905 102.378 225.236 102.672Z" fill="#633A1E"/>
<path d="M248.079 57.9514L248.456 58.8102C248.602 59.1507 248.217 59.4756 247.909 59.2745L247.124 58.7638" fill="#633A1E"/>
<path d="M243.059 50.191C242.951 50.0672 242.928 49.8893 243.013 49.7345C243.013 49.7345 243.467 48.8525 243.236 48.1871C243.144 47.9085 242.936 47.7074 242.612 47.5681C242.404 47.4753 242.312 47.2354 242.404 47.0265C242.497 46.8176 242.736 46.7248 242.943 46.8176C243.475 47.0575 243.836 47.4288 244.006 47.924C244.352 48.9299 243.752 50.0672 243.729 50.1214C243.621 50.3225 243.375 50.3922 243.182 50.2916C243.136 50.2684 243.097 50.2374 243.067 50.1988L243.059 50.191Z" fill="#633A1E"/>
<path d="M246.747 50.2375L248.317 52.1021C248.694 52.5586 248.972 53.0615 249.141 53.5877C249.272 53.9823 249.349 54.3923 249.372 54.8024C249.441 56.1874 248.895 57.5878 247.763 58.5472C247.724 58.5781 247.694 58.6091 247.655 58.6323C246.539 59.5298 245.122 59.8161 243.821 59.5298C243.421 59.4447 243.036 59.2977 242.666 59.1043C242.174 58.8412 241.727 58.493 241.342 58.0443L239.772 56.1796C239.194 55.4988 238.848 54.6941 238.732 53.8662C238.601 52.93 238.755 51.9706 239.186 51.1195C239.448 50.5934 239.825 50.1137 240.303 49.7036C240.78 49.2935 241.311 49.0073 241.873 48.8293C242.774 48.5353 243.752 48.543 244.645 48.8293C245.438 49.0769 246.169 49.5489 246.747 50.2375Z" fill="#FFB91D"/>
<path d="M242.59 52.7366C241.981 53.255 241.088 53.2008 240.588 52.6205C240.087 52.0402 240.188 51.1427 240.796 50.6166L241.373 50.1214C241.981 49.603 242.874 49.6572 243.375 50.2375C243.875 50.8177 243.775 51.7153 243.167 52.2414L242.59 52.7366Z" fill="white"/>
<path d="M245.007 55.2976C243.767 56.3498 242.52 57.2783 241.334 58.052C241.719 58.5008 242.174 58.8567 242.659 59.112C243.921 58.2609 245.091 57.3557 246.054 56.5433C247.016 55.7309 248.094 54.7096 249.133 53.5954C248.956 53.0693 248.687 52.5586 248.31 52.1099C247.355 53.1621 246.239 54.2453 244.999 55.2976H245.007Z" fill="#633A1E"/>
<path d="M246.708 57.3092C245.738 58.1371 244.768 58.8799 243.821 59.5375C245.122 59.8238 246.539 59.5375 247.655 58.64C247.694 58.6091 247.725 58.5859 247.763 58.5549C248.895 57.5878 249.441 56.1873 249.372 54.8101C248.571 55.638 247.678 56.4814 246.708 57.3092Z" fill="#633A1E"/>
<path d="M249.311 49.6185L247.817 49.4947C247.455 49.4637 247.109 49.5024 246.785 49.5953C246.547 49.6572 246.316 49.7577 246.1 49.8738C245.392 50.2761 244.899 50.9725 244.83 51.7849C244.83 51.8081 244.83 51.839 244.83 51.8623C244.791 52.6514 245.161 53.3787 245.777 53.8817C245.962 54.0364 246.177 54.1679 246.408 54.2685C246.716 54.4078 247.055 54.5006 247.417 54.5316L248.91 54.6554C249.457 54.7018 249.98 54.6012 250.427 54.3923C250.935 54.1602 251.359 53.7811 251.62 53.3169C251.782 53.0306 251.89 52.7056 251.913 52.3652C251.936 52.0247 251.89 51.692 251.774 51.3748C251.589 50.8719 251.235 50.4309 250.773 50.1137C250.365 49.8351 249.865 49.6494 249.318 49.603L249.311 49.6185Z" fill="#78E0F3"/>
<path d="M244.46 49.7113C244.352 49.5875 244.329 49.4096 244.414 49.2548C244.414 49.2548 244.868 48.3728 244.637 47.7074C244.545 47.4289 244.337 47.2277 244.014 47.0884C243.806 46.9956 243.713 46.7557 243.806 46.5468C243.898 46.3379 244.137 46.2451 244.345 46.3379C244.876 46.5778 245.238 46.9492 245.407 47.4443C245.754 48.4502 245.153 49.5875 245.13 49.6417C245.022 49.8429 244.776 49.9125 244.583 49.8119C244.537 49.7887 244.499 49.7578 244.468 49.7191L244.46 49.7113Z" fill="#633A1E"/>
<path d="M241.027 52.2414C240.742 51.9009 240.803 51.3671 241.173 51.0576L241.75 50.5624C242.12 50.2529 242.651 50.2761 242.936 50.6166C243.221 50.957 243.159 51.4909 242.79 51.8004L242.212 52.2955C241.843 52.605 241.311 52.5818 241.027 52.2414Z" fill="#633A1E"/>
</g>
<circle cx="173" cy="280" r="20" fill="#633A1E"/>
<circle cx="97" cy="212" r="20" fill="#FDF6E7"/>
<circle cx="171" cy="154" r="20" fill="#FDF6E7"/>
<path d="M164 280.5L170.5 287L182.5 275" stroke="#F5E3C2" stroke-width="4" stroke-linecap="round" stroke-linejoin="round"/>
<path d="M88 211.5L94.5 218L106.5 206" stroke="#F5E3C2" stroke-width="4" stroke-linecap="round" stroke-linejoin="round"/>
<path d="M162 153.5L168.5 160L180.5 148" stroke="#F5E3C2" stroke-width="4" stroke-linecap="round" stroke-linejoin="round"/>
<defs>
<clipPath id="clip0_573_1040">
<rect width="60" height="62" fill="white" transform="matrix(-0.98713 0.159917 0.159917 0.98713 59.5239 250.126)"/>
</clipPath>
<clipPath id="clip1_573_1040">
<rect width="218" height="130" fill="white" transform="translate(137)"/>
</clipPath>
</defs>
</svg>
