<svg width="166" height="149" viewBox="0 0 166 149" fill="none" xmlns="http://www.w3.org/2000/svg">
<g clip-path="url(#clip0_182_5)">
<path d="M54.1401 135.33V145.93C54.1401 147.37 55.2101 148.54 56.5201 148.54H65.1501C66.4601 148.54 67.5301 147.37 67.5301 145.93V135.85C67.5301 134.47 66.5401 133.33 65.2801 133.25L56.6501 132.73C55.2901 132.65 54.1401 133.84 54.1401 135.33Z" fill="#361917"/>
<path d="M16.0298 113.58V124.18C16.0298 125.62 17.0998 126.79 18.4098 126.79H27.0398C28.3498 126.79 29.4198 125.62 29.4198 124.18V114.1C29.4198 112.72 28.4298 111.58 27.1698 111.5L18.5398 110.98C17.1798 110.9 16.0298 112.09 16.0298 113.58Z" fill="#361917"/>
<path d="M133.64 130.64V141.24C133.64 142.68 134.71 143.85 136.02 143.85H144.65C145.96 143.85 147.03 142.68 147.03 141.24V131.16C147.03 129.78 146.04 128.64 144.78 128.56L136.15 128.04C134.79 127.96 133.64 129.15 133.64 130.64Z" fill="#361917"/>
<path d="M49.55 136.46L13.21 114.3V35.78L49.55 51V136.46Z" fill="#5172C6"/>
<path d="M161.1 46.48L104.24 23.3L38.6899 52.27L49.5499 51.76V136.46L150.96 131.39V46.96L161.1 46.48Z" fill="#6B90EC"/>
<path d="M0.759768 32.06L65.5998 0.140015C65.9498 -0.029985 66.3598 -0.049985 66.7198 0.100015L165.56 41.1C165.82 41.21 165.99 41.46 165.99 41.74V47.75C165.99 48.11 165.63 48.35 165.3 48.21L104.78 23.51C104.44 23.37 104.06 23.38 103.72 23.53L38.6998 52.27L0.779768 34.5C-0.250232 34.02 -0.260232 32.56 0.759768 32.06Z" fill="#253F73"/>
<path d="M69.79 114.35V114.9C69.79 119.49 73.54 123.16 78.04 122.95L129.1 120.55C133.31 120.35 136.62 116.82 136.63 112.52C136.63 107.96 132.93 104.3 128.46 104.47L77.4 106.32C73.16 106.47 69.8 110.02 69.79 114.35Z" fill="#111E33"/>
<path d="M74.5198 115.33H61.8398V105.4H74.0298L74.5198 115.33Z" fill="#253F73"/>
<path d="M61.8398 105.4L135.39 102.05L144.69 111.94L74.5198 115.33L61.8398 105.4Z" fill="#3F5794"/>
<path d="M49.55 76.38L13.21 59.97V49.07L49.55 66.37L150.95 62.2V72.21L49.55 76.38Z" fill="#3F5794"/>
</g>
<defs>
<clipPath id="clip0_182_5">
<rect width="165.99" height="148.54" fill="white"/>
</clipPath>
</defs>
</svg>
