<svg width="100" height="100" viewBox="0 0 100 100" fill="none" xmlns="http://www.w3.org/2000/svg">
<rect width="100" height="100" fill="white"/>
<path d="M36.3445 94H33.3101V90.9655H36.3445V94Z" fill="black"/>
<path d="M42.4134 94H39.379V90.9655H42.4134V94Z" fill="black"/>
<path d="M54.5521 94H45.4479V84.8966H48.4823V90.9655H54.5521V94Z" fill="black"/>
<path d="M33.3101 90.9655H30.2756V87.9311H33.3101V90.9655Z" fill="black"/>
<path d="M57.5866 90.9655H54.5521V87.9311H57.5866V90.9655Z" fill="black"/>
<path d="M94 90.9655H90.9655V87.9311H87.9311V81.8622H90.9655V84.8966H94V90.9655Z" fill="black"/>
<path d="M42.4134 87.9311H33.3101V84.8966H30.2756V75.7933H33.3101V72.7588H36.3445V75.7933H39.379V78.8277H36.3445V81.8622H39.379V84.8966H42.4134V87.9311Z" fill="black"/>
<path d="M54.5521 87.9311H51.5177V84.8966H54.5521V87.9311Z" fill="black"/>
<path d="M63.6555 87.9311H57.5866V84.8966H60.621V81.8622H63.6555V87.9311Z" fill="black"/>
<path d="M51.5177 84.8966H48.4823V81.8622H51.5177V84.8966Z" fill="black"/>
<path d="M84.8966 84.8966H81.8622V81.8622H84.8966V84.8966Z" fill="black"/>
<path d="M42.4134 81.8622H39.379V78.8277H42.4134V81.8622Z" fill="black"/>
<path d="M48.4823 81.8622H45.4479V78.8277H48.4823V81.8622Z" fill="black"/>
<path d="M54.5521 81.8622H51.5177V78.8277H54.5521V81.8622Z" fill="black"/>
<path d="M60.621 81.8622H57.5866V78.8277H60.621V81.8622Z" fill="black"/>
<path d="M51.5177 78.8277H48.4823V75.7933H51.5177V78.8277Z" fill="black"/>
<path d="M94 78.8277H87.9311V75.7933H94V78.8277Z" fill="black"/>
<path d="M42.4134 75.7933H39.379V69.7244H36.3445V66.6899H33.3101V63.6555H39.379V60.621H42.4134V63.6555H45.4479V66.6899H42.4134V75.7933Z" fill="black"/>
<path d="M33.3101 72.7588H30.2756V69.7244H33.3101V72.7588Z" fill="black"/>
<path d="M27.2412 69.7244H15.1034V66.6899H27.2412V69.7244Z" fill="black"/>
<path d="M27.2412 63.6555H24.2067V60.621H27.2412V63.6555Z" fill="black"/>
<path d="M66.6899 63.6555H60.621V60.621H63.6555V57.5866H66.6899V51.5177H60.621V45.4479H63.6555V48.4823H69.7244V51.5177H72.7588V45.4479H69.7244V42.4134H75.7933V48.4823H78.8277V51.5177H75.7933V54.5521H72.7588V57.5866H69.7244V60.621H66.6899V63.6555Z" fill="black"/>
<path d="M24.2067 60.621H21.1723V57.5866H24.2067V60.621Z" fill="black"/>
<path d="M18.1378 57.5866H15.1034V54.5521H18.1378V57.5866Z" fill="black"/>
<path d="M63.6555 57.5866H60.621V54.5521H63.6555V57.5866Z" fill="black"/>
<path d="M78.8277 57.5866H75.7933V54.5521H78.8277V57.5866Z" fill="black"/>
<path d="M75.7933 75.7933H72.7588V72.7588H75.7933V75.7933Z" fill="black"/>
<path fill-rule="evenodd" clip-rule="evenodd" d="M90.9655 57.5866H87.9311V54.5521H84.8966V60.621H81.8622V63.6555H78.8277V66.6899H84.8966V60.621H87.9311V63.6555H90.9655V60.621H94V66.6899H90.9655V69.7244H87.9311V75.7933H84.8966V72.7588H81.8622V75.7933H84.8966V78.8277H81.8622V81.8622H78.8277V84.8966H81.8622V87.9311H87.9311V90.9655H81.8622V94H63.6555V90.9655H69.7244V87.9311H66.6899V84.8966H72.7588V90.9655H78.8277V87.9311H75.7933V81.8622H63.6555V78.8277H60.621V75.7933H63.6555V72.7588H66.6899V69.7244H63.6555V66.6899H66.6899V63.6555H75.7933V60.621H78.8277V57.5866H81.8622V54.5521H78.8277V51.5177H81.8622V48.4823H84.8966V51.5177H90.9655V45.4479H94V54.5521H90.9655V57.5866ZM69.7244 69.7244V78.8277H78.8277V69.7244H69.7244Z" fill="black"/>
<path d="M9.03445 51.5177H6V48.4823H9.03445V51.5177Z" fill="black"/>
<path d="M81.8622 48.4823H78.8277V45.4479H81.8622V48.4823Z" fill="black"/>
<path d="M87.9311 48.4823H84.8966V45.4479H87.9311V48.4823Z" fill="black"/>
<path d="M84.8966 45.4479H81.8622V39.379H84.8966V45.4479Z" fill="black"/>
<path d="M90.9655 45.4479H87.9311V42.4134H90.9655V45.4479Z" fill="black"/>
<path d="M63.6555 42.4134H60.621V39.379H63.6555V42.4134Z" fill="black"/>
<path d="M94 42.4134H90.9655V39.379H94V42.4134Z" fill="black"/>
<path d="M27.2412 39.379H24.2067V36.3445H27.2412V39.379Z" fill="black"/>
<path d="M42.4134 39.379H39.379V36.3445H36.3445V39.379H30.2756V36.3445H33.3101V33.3101H36.3445V30.2756H42.4134V39.379Z" fill="black"/>
<path d="M57.5866 39.379H48.4823V36.3445H45.4479V30.2756H51.5177V36.3445H57.5866V39.379Z" fill="black"/>
<path d="M81.8622 39.379H66.6899V36.3445H57.5866V33.3101H63.6555V30.2756H51.5177V27.2412H54.5521V24.2067H57.5866V27.2412H60.621V24.2067H63.6555V27.2412H66.6899V24.2067H69.7244V30.2756H66.6899V33.3101H69.7244V36.3445H75.7933V33.3101H78.8277V30.2756H84.8966V33.3101H81.8622V39.379Z" fill="black"/>
<path d="M24.2067 36.3445H21.1723V33.3101H18.1378V39.379H15.1034V42.4134H9.03445V39.379H6V36.3445H9.03445V30.2756H12.0689V33.3101H15.1034V30.2756H27.2412V33.3101H24.2067V36.3445Z" fill="black"/>
<path d="M30.2756 36.3445H27.2412V33.3101H30.2756V36.3445Z" fill="black"/>
<path d="M90.9655 36.3445H84.8966V33.3101H87.9311V30.2756H90.9655V36.3445Z" fill="black"/>
<path d="M33.3101 33.3101H30.2756V24.2067H33.3101V33.3101Z" fill="black"/>
<path d="M75.7933 33.3101H69.7244V30.2756H75.7933V33.3101Z" fill="black"/>
<path d="M39.379 27.2412H36.3445V24.2067H39.379V27.2412Z" fill="black"/>
<path d="M45.4479 27.2412H42.4134V24.2067H39.379V18.1378H36.3445V24.2067H33.3101V21.1723H30.2756V15.1034H36.3445V6H39.379V9.03445H42.4134V18.1378H45.4479V27.2412Z" fill="black"/>
<path d="M51.5177 27.2412H48.4823V21.1723H51.5177V18.1378H54.5521V24.2067H51.5177V27.2412Z" fill="black"/>
<path d="M66.6899 21.1723H60.621V18.1378H57.5866V15.1034H60.621V9.03445H57.5866V6H69.7244V9.03445H66.6899V12.0689H63.6555V15.1034H66.6899V21.1723Z" fill="black"/>
<path d="M48.4823 18.1378H45.4479V12.0689H48.4823V9.03445H42.4134V6H54.5521V9.03445H51.5177V15.1034H48.4823V18.1378Z" fill="black"/>
<path d="M57.5866 15.1034H54.5521V9.03445H57.5866V15.1034Z" fill="black"/>
<path d="M69.7244 15.1034H66.6899V12.0689H69.7244V15.1034Z" fill="black"/>
<path d="M33.3101 12.0689H30.2756V9.03445H33.3101V12.0689Z" fill="black"/>
<path d="M21.1723 87.9311H12.0689V78.8277H21.1723V87.9311Z" fill="black"/>
<path fill-rule="evenodd" clip-rule="evenodd" d="M27.2412 94H6V72.7588H27.2412V94ZM9.03445 75.7933V90.9655H24.2067V75.7933H9.03445Z" fill="black"/>
<path fill-rule="evenodd" clip-rule="evenodd" d="M60.621 69.7244H63.6555V72.7588H57.5866V78.8277H54.5521V75.7933H51.5177V72.7588H48.4823V75.7933H45.4479V66.6899H48.4823V63.6555H45.4479V60.621H51.5177V63.6555H54.5521V60.621H57.5866V66.6899H60.621V69.7244ZM51.5177 66.6899V69.7244H54.5521V66.6899H51.5177Z" fill="black"/>
<path fill-rule="evenodd" clip-rule="evenodd" d="M39.379 51.5177H36.3445V57.5866H39.379V60.621H33.3101V63.6555H30.2756V57.5866H24.2067V54.5521H27.2412V51.5177H24.2067V54.5521H21.1723V51.5177H15.1034V54.5521H12.0689V60.621H21.1723V63.6555H12.0689V69.7244H6V57.5866H9.03445V51.5177H12.0689V48.4823H21.1723V45.4479H18.1378V42.4134H21.1723V39.379H24.2067V42.4134H36.3445V39.379H39.379V51.5177ZM30.2756 51.5177V54.5521H33.3101V51.5177H30.2756ZM24.2067 45.4479V48.4823H30.2756V45.4479H24.2067ZM33.3101 48.4823H36.3445V45.4479H33.3101V48.4823Z" fill="black"/>
<path d="M21.1723 21.1723H12.0689V12.0689H21.1723V21.1723Z" fill="black"/>
<path fill-rule="evenodd" clip-rule="evenodd" d="M27.2412 27.2412H6V6H27.2412V27.2412ZM9.03445 9.03445V24.2067H24.2067V9.03445H9.03445Z" fill="black"/>
<path d="M87.9311 21.1723H78.8277V12.0689H87.9311V21.1723Z" fill="black"/>
<path fill-rule="evenodd" clip-rule="evenodd" d="M94 27.2412H72.7588V6H94V27.2412ZM75.7933 9.03445V24.2067H90.9655V9.03445H75.7933Z" fill="black"/>
<rect x="41" y="41" width="18" height="18" rx="4" fill="#FFB91D"/>
<path d="M50.0789 54.7723C49.2961 54.7723 48.5972 54.3251 48.2478 53.6061C48.1417 53.3869 48.2346 53.1282 48.4557 53.023C48.6768 52.9178 48.9378 53.0099 49.044 53.2291C49.243 53.6412 49.641 53.8955 50.0789 53.8955C50.5168 53.8955 50.9148 53.6412 51.1139 53.2291C51.22 53.0099 51.481 52.9178 51.7021 53.023C51.9233 53.1282 52.0162 53.3913 51.91 53.6061C51.5606 54.3251 50.8618 54.7723 50.0789 54.7723Z" fill="#633A1E"/>
<path d="M43.5107 54.2945C44.4291 54.2945 45.1737 53.5564 45.1737 52.646C45.1737 51.7356 44.4291 50.9976 43.5107 50.9976C42.5922 50.9976 41.8477 51.7356 41.8477 52.646C41.8477 53.5564 42.5922 54.2945 43.5107 54.2945Z" fill="#F5840A"/>
<path d="M56.4876 54.2945C57.4061 54.2945 58.1506 53.5564 58.1506 52.646C58.1506 51.7356 57.4061 50.9976 56.4876 50.9976C55.5691 50.9976 54.8246 51.7356 54.8246 52.646C54.8246 53.5564 55.5691 54.2945 56.4876 54.2945Z" fill="#F5840A"/>
<path d="M43.1746 49.7612C43.1746 51.4886 44.5236 52.8871 46.1866 52.8871C47.8496 52.8871 49.1986 51.4886 49.1986 49.7612V48.1259C49.1986 46.3986 47.8496 45 46.1866 45C44.5236 45 43.1746 46.3986 43.1746 48.1259V49.7612Z" fill="white"/>
<path d="M46.1866 51.642C45.218 51.642 44.4307 50.8003 44.4307 49.7612V48.1259C44.4307 47.0869 45.218 46.2451 46.1866 46.2451C47.1552 46.2451 47.9425 47.0869 47.9425 48.1259V49.7612C47.9425 50.8003 47.1552 51.642 46.1866 51.642Z" fill="#633A1E"/>
<path d="M56.9873 49.7612C56.9873 51.4886 55.6383 52.8871 53.9753 52.8871C52.3123 52.8871 50.9633 51.4886 50.9633 49.7612V48.1259C50.9633 46.3986 52.3123 45 53.9753 45C55.6383 45 56.9873 46.3986 56.9873 48.1259V49.7612Z" fill="white"/>
<path d="M53.9754 51.642C53.0068 51.642 52.2195 50.8003 52.2195 49.7612V48.1259C52.2195 47.0869 53.0068 46.2451 53.9754 46.2451C54.944 46.2451 55.7313 47.0869 55.7313 48.1259V49.7612C55.7313 50.8003 54.944 51.642 53.9754 51.642Z" fill="#633A1E"/>
</svg>
